<svg viewBox="0 0 445 170" preserveAspectRatio="xMidYMid meet" class="css-1y5supu" id="ebegbgfg">
    <defs id="SvgjsDefs1222"></defs>
    <g id="SvgjsG1223" featurekey="root" fill="#7c7c7c"></g>
    <g id="SvgjsG1224" featurekey="symbol1" fill="#dddddd" transform="matrix(1.1290322580645162,0,0,1.1290322580645162,186.8709677419355,8.870967741935484)">
        <g>
            <path d="M1,32.414l2.121,2.122C3.68,35.094,4,35.867,4,36.657V58c0,2.757,2.243,5,5,5h19c2.757,0,5-2.243,5-5V29H1V32.414z M28,61   H9c-1.654,0-3-1.346-3-3V39.016c4.738,0.083,8.127,0.728,11.683,1.416c3.756,0.727,7.655,1.47,13.317,1.551V58   C31,59.654,29.654,61,28,61z M3,31h28v8.984c-5.474-0.082-9.275-0.806-12.938-1.515C14.568,37.793,10.945,37.102,6,37.017v-0.36   c0-1.335-0.521-2.591-1.465-3.535L3,31.586V31z"></path>
            <path d="M11,45c-1.654,0-3,1.346-3,3s1.346,3,3,3s3-1.346,3-3S12.654,45,11,45z M11,49c-0.552,0-1-0.449-1-1s0.448-1,1-1   s1,0.449,1,1S11.552,49,11,49z"></path>
            <path d="M22,50c-2.206,0-4,1.794-4,4s1.794,4,4,4s4-1.794,4-4S24.206,50,22,50z M22,56c-1.103,0-2-0.897-2-2s0.897-2,2-2   s2,0.897,2,2S23.103,56,22,56z"></path>
            <path d="M56,1v14H26V1h-7v26h2V7h3v20h2v-6h30v19H35v2h23V7h3v37c0,0.551-0.448,1-1,1H35v2h25c1.654,0,3-1.346,3-3V1H56z M21,5V3h3   v2H21z M26,19v-2h30v2H26z M58,5V3h3v2H58z"></path>
            <path d="M30,13h2V9h4v4h2V9h2V3H28v6h2V13z M30,5h8v2h-8V5z"></path>
            <rect x="30" y="23" width="2" height="4"></rect>
            <path d="M38,34V23h-2v11c0,0.847-0.536,1.604-1.333,1.886l0.666,1.886C36.929,37.208,38,35.692,38,34z"></path>
            <path d="M44,13h2V9h4v4h2V9h2V3H42v6h2V13z M44,5h8v2h-8V5z"></path>
            <path d="M44,23v11c0,2.206,1.794,4,4,4s4-1.794,4-4V23h-2v11c0,1.103-0.897,2-2,2s-2-0.897-2-2V23H44z"></path>
            <path d="M13,27c2.206,0,4-1.794,4-4s-1.794-4-4-4s-4,1.794-4,4S10.794,27,13,27z M13,21c1.103,0,2,0.897,2,2s-0.897,2-2,2   s-2-0.897-2-2S11.897,21,13,21z"></path>
            <path d="M4,16c1.654,0,3-1.346,3-3s-1.346-3-3-3s-3,1.346-3,3S2.346,16,4,16z M4,12c0.552,0,1,0.449,1,1s-0.448,1-1,1s-1-0.449-1-1   S3.448,12,4,12z"></path>
            <path d="M13,7c1.654,0,3-1.346,3-3s-1.346-3-3-3s-3,1.346-3,3S11.346,7,13,7z M13,3c0.552,0,1,0.449,1,1s-0.448,1-1,1s-1-0.449-1-1   S12.448,3,13,3z"></path>
        </g>
    </g>
    <g id="SvgjsG1225" featurekey="text1" fill="#dddddd" transform="matrix(4.278521562736595,0,0,4.278521562736595,0,67.38004125607635)">
        <path d="M0.21484 10.058375 l3.1055 0 q0.517578125 1.875 2.109375 7.5 l1.2305 0 q0.048828125 0 0.400390625 -1.337890625 q0.771484375 -2.65625 1.73828125 -6.162109375 l2.8711 0 l0 9.0332 l0.15625 0 l0 1.6504 l-0.86914 0 l0 0.30273 l0.86914 0 l0 2.9395 l-2.4414 0 l0 -1.084 l0.30273 0 l0 -3.3398 l-0.51758 0 l0 -1.6699 l-0.30273 0 l-0.019531 0.097656 l-0.26367 0 l0 2.373 l-0.84961 0 l0 1.1035 l-0.72266 0 l0 1.8848 l-1.7188 0 l0 -1.2012 l-1.0547 0 l0 -1.6406 l-0.63477 0 l0 -1.7188 l-0.36133 0 q-0.01953125 -0.13671875 -0.234375 -0.8984375 l2.4707 0 l-0.068359 -0.33203 l-2.4707 0 l0.068359 0.33203 l-0.32227 0 l0 2.168 l0.15625 0 l0 2.373 l-0.60547 0 l0 0.41992 l0.60547 0 l0 0.63477 l-2.207 0 l0 -2.8613 l-0.41992 0 l0 -10.566 z M2.6563 16.572275 l0 0.16602 q0 0.21484375 0.029296875 0.8203125 l0.23438 0 q-0.234375 -0.9375 -0.234375 -0.986328125 l-0.029297 0 z M9.1699 16.601575 l-0.20508 0.95703 l0.20508 0 q0.029296875 -0.595703125 0.029296875 -0.869140625 l0 -0.087891 l-0.029297 0 z M1.8848 17.558575 l0 0.33203 l0.77148 0 l0 -0.33203 l-0.77148 0 z M6.6992 17.558575 l-0.068359 0.33203 l2.2168 0 q0.087890625 -0.25390625 0.087890625 -0.33203125 l-2.2363 0 z M9.1992 17.558575 l0 0.33203 l1.6895 0 l0 -0.33203 l-1.6895 0 z M5.5273 17.890575 q0.15625 0.751953125 0.21484375 0.751953125 l0.2832 0 l0 1.25 l0.43945 0 l0 -1.9336 l0.11719 0 l0 -0.068359 l-1.0547 0 z M11.826 20.742175 l1.416 0 l0 0.30273 l-1.416 0 l0 -0.30273 z M0 23.603515 l2.4902 0 l0 0.21484 l-2.4902 0 l0 -0.21484 z M17.70511875 10.029375 q2.32421875 0 3.115234375 1.494140625 q0.546875 1.1328125 0.546875 2.216796875 l-0.019531 0 q-1.591796875 0.13671875 -2.177734375 0.13671875 q0 -0.771484375 -0.478515625 -1.298828125 q-0.44921875 -0.25390625 -0.830078125 -0.25390625 l-0.39063 0 q-0.99609375 0 -1.2109375 0.771484375 q-0.048828125 0.224609375 -0.048828125 0.3515625 l0 0.20508 q0 1.09375 1.15234375 1.58203125 q0.09765625 0.087890625 1.6015625 0.732421875 q0.80078125 0.37109375 1.484375 0.91796875 l0 0.019531 l-2.4512 0 l0 0.27344 l3.2324 0 l0 0.39063 l0.41016 0 l0 4.2383 l-0.80078 0 l0 2.1777 l-6.2109 0 l0 -2.1777 l-1.4648 0 l0 -1.4648 l0.83008 0 l0 -0.50781 l-0.83008 0 l0 -0.3418 l2.8418 0 l0 2.3145 l2.9102 0 l0 -3.4863 l-2.1777 0 l0 -1.1426 l-2.7051 0 l0 -0.27344 l1.3086 0 l0 -0.019531 q-1.71875 -1.142578125 -1.71875 -3.232421875 l0 -0.18555 q0 -1.748046875 1.07421875 -2.65625 q0.9765625 -0.78125 3.0078125 -0.78125 z M21.23051875 16.904275 l0.98633 0 l0 0.27344 l-0.98633 0 l0 -0.27344 z M12.22655875 19.833975 l0.9375 0 l0 0.50781 l-0.9375 0 l0 -0.50781 z M23.29101125 10.088375 l6.8457 0 l0 2.2754 q0 0.048828125 -0.048828125 0.048828125 l-4.0625 0 l0 3.0078 l3.6426 0 l0 0.029297 q0 0.126953125 -0.0390625 1.474609375 q-0.029296875 0 -0.029296875 0.01953125 l0.16602 0 l0 0.70313 l-3.1543 0 l0 2.8516 l-0.84961 0 l0 0.2832 l0.84961 0 l0 0.86914 l3.5742 0 l0 0.32227 l-0.2832 0 l0 1.709 l-4.2773 0 l0 0.30273 l-2.0313 0 l0 -4.9805 l-0.30273 0 l0 -1.7578 l-2.2266 0 l0 -0.30273 l2.2266 0 l0 -6.8555 z M23.31055125 16.943375 l0 0.30273 l1.1426 0 l0 -0.30273 l-1.1426 0 z M32.763634375 19.990275 q-0.390625 0 -0.390625 -0.2734375 l0 -0.81055 q0 -0.283203125 0.400390625 -0.283203125 l3.4766 0 q0.400390625 0 0.400390625 0.283203125 l0 0.81055 q0 0.2734375 -0.390625 0.2734375 l-3.4961 0 z M37.373043125 9.990375 l8.2031 0 l0 2.334 l-2.7148 0 l0 9.6777 l1.2305 0 l0 0.2832 l-1.2305 0 l0 1.0645 l-0.73242 0 l0 0.37109 l0.51758 0 l0 0.26367 l-2.4902 0 q-0.048828125 0 -0.048828125 -0.048828125 l0 -11.611 l-2.7344 0 l0 -2.334 z M41.894503125 22.001975 l0 0.2832 l0.94727 0 l0 -0.2832 l-0.94727 0 z M50.341803125 10.009375 q3.0078125 0 3.955078125 2.099609375 q0.537109375 1.025390625 0.537109375 3.955078125 l0 0.068359 l-1.0352 0 l0 0.46875 l1.0352 0 l0 5.0488 l-0.68359 0 l0 1.8164 l-1.3574 0 l0 0.51758 l-4.7461 0 l0 -0.51758 l-0.57617 0 l0 -1.8164 l-1.2207 0 l0 -1.4258 l0.72266 0 l0 -0.75195 l-0.72266 0 l0 0.75195 l-1.7285 0 l0 -0.75195 l1.3086 0 q-0.01953125 -1.708984375 -0.01953125 -2.6171875 l0 -1.1914 q0 -3.3203125 1.123046875 -4.443359375 q1.025390625 -1.2109375 3.408203125 -1.2109375 z M48.632803125 14.824175 l0.029297 0 l-0.029297 0.039063 l0 1.2695 l-1.0449 0 l0 0.46875 l1.0449 0 q-0.01953125 3.017578125 -0.01953125 4.55078125 l0 0.49805 l2.334 0 l0 -0.77148 l1.0742 0 l0 -0.029297 q0 -1.42578125 -0.01953125 -3.974609375 q0 -0.107421875 0.01953125 -0.537109375 q0 -2.75390625 -0.322265625 -3.388671875 q-0.33203125 -0.60546875 -1.220703125 -0.60546875 l-0.3418 0 q-1.064453125 0 -1.318359375 0.9375 q-0.1171875 0.458984375 -0.185546875 1.54296875 z M54.834003125 16.132775 l1.6797 0 l0 0.46875 l-1.6797 0 l0 -0.46875 z M61.25000625 10.009375 q3.0078125 0 3.955078125 2.099609375 q0.537109375 1.025390625 0.537109375 3.955078125 l0 0.068359 l-1.0352 0 l0 0.46875 l1.0352 0 l0 5.0488 l-0.68359 0 l0 1.8164 l-1.3574 0 l0 0.51758 l-4.7461 0 l0 -0.51758 l-0.57617 0 l0 -1.8164 l-1.2207 0 l0 -1.4258 l0.72266 0 l0 -0.75195 l-0.72266 0 l0 0.75195 l-1.7285 0 l0 -0.75195 l1.3086 0 q-0.01953125 -1.708984375 -0.01953125 -2.6171875 l0 -1.1914 q0 -3.3203125 1.123046875 -4.443359375 q1.025390625 -1.2109375 3.408203125 -1.2109375 z M59.54100625 14.824175 l0.029297 0 l-0.029297 0.039063 l0 1.2695 l-1.0449 0 l0 0.46875 l1.0449 0 q-0.01953125 3.017578125 -0.01953125 4.55078125 l0 0.49805 l2.334 0 l0 -0.77148 l1.0742 0 l0 -0.029297 q0 -1.42578125 -0.01953125 -3.974609375 q0 -0.107421875 0.01953125 -0.537109375 q0 -2.75390625 -0.322265625 -3.388671875 q-0.33203125 -0.60546875 -1.220703125 -0.60546875 l-0.3418 0 q-1.064453125 0 -1.318359375 0.9375 q-0.1171875 0.458984375 -0.185546875 1.54296875 z M65.74220625 16.132775 l1.6797 0 l0 0.46875 l-1.6797 0 l0 -0.46875 z M66.787109375 9.961375 l2.7832 0 l0 5.752 l-0.54688 0 l0 5.9375 l4.1504 0 l0 1.25 l-0.82031 0 l0 0.2832 l0.82031 0 l0 0.80078 l-2.6855 0 l0 -0.21484 l-3.6816 0 q-0.01953125 -0.234375 -0.01953125 -0.3515625 l0 -3.1348 l0.70313 0 l0 -0.41992 l-0.70313 0 l0 -9.9023 z M73.173809375 22.900375 l1.0156 0 l0 0.2832 l-1.0156 0 l0 -0.2832 z M74.746095625 10.117375 l3.9355 0 q2.63671875 0 3.349609375 1.328125 q0.400390625 0.693359375 0.400390625 1.89453125 l0 0.9668 q0 1.3671875 -1.181640625 2.20703125 q0.400390625 0.068359375 1.015625 0.615234375 l0.3125 0 q0.576171875 0.60546875 0.751953125 1.162109375 q0.048828125 0.1953125 0.048828125 0.21484375 l0.38086 0 l0 0.23438 l-1.2598 0 l0 -0.23438 l-2.5781 0 l0 -0.73242 l-2.5391 0 l0 4.0332 l1.5918 0 l0 -0.2832 l0.94727 0 l0 -2.7832 l2.5781 0 l0 2.4512 l0.2832 0 l0 1.5332 l-0.84961 0 l0 0.36133 l0.84961 0 l0 0.63477 l-3.2715 0 l0 0.26367 l-3.5742 0 l0 -0.26367 l-0.78125 0 l0 -2.1289 l1.0645 0 l0 -0.56641 l-1.0645 0 q-0.029296875 -1.630859375 -0.029296875 -2.421875 l0 -1.0254 l-0.89844 0 l0 -0.25391 l0.89844 0 l0 -0.54688 l-0.41992 0 l0 -6.6113 q0 -0.048828125 0.0390625 -0.048828125 z M77.431615625 12.461375 l0 3.4375 l0.58594 0 q1.044921875 0 1.376953125 -0.3515625 q0.33203125 -0.283203125 0.33203125 -1.5234375 l0 -0.048828 q0 -1.0546875 -0.33203125 -1.279296875 q-0.21484375 -0.234375 -1.513671875 -0.234375 l-0.44922 0 z M75.156245625 17.324175 l0 0.25391 l1.2793 0 l0 -0.25391 l-1.2793 0 z M78.613315625 18.505875 l1.3086 0 l0 0.23438 l-1.3086 0 l0 -0.23438 z M89.3164125 10.009375 q3.0078125 0 3.955078125 2.099609375 q0.537109375 1.025390625 0.537109375 3.955078125 l0 0.068359 l-1.0352 0 l0 0.46875 l1.0352 0 l0 5.0488 l-0.68359 0 l0 1.8164 l-1.3574 0 l0 0.51758 l-4.7461 0 l0 -0.51758 l-0.57617 0 l0 -1.8164 l-1.2207 0 l0 -1.4258 l0.72266 0 l0 -0.75195 l-0.72266 0 l0 0.75195 l-1.7285 0 l0 -0.75195 l1.3086 0 q-0.01953125 -1.708984375 -0.01953125 -2.6171875 l0 -1.1914 q0 -3.3203125 1.123046875 -4.443359375 q1.025390625 -1.2109375 3.408203125 -1.2109375 z M87.6074125 14.824175 l0.029297 0 l-0.029297 0.039063 l0 1.2695 l-1.0449 0 l0 0.46875 l1.0449 0 q-0.01953125 3.017578125 -0.01953125 4.55078125 l0 0.49805 l2.334 0 l0 -0.77148 l1.0742 0 l0 -0.029297 q0 -1.42578125 -0.01953125 -3.974609375 q0 -0.107421875 0.01953125 -0.537109375 q0 -2.75390625 -0.322265625 -3.388671875 q-0.33203125 -0.60546875 -1.220703125 -0.60546875 l-0.3418 0 q-1.064453125 0 -1.318359375 0.9375 q-0.1171875 0.458984375 -0.185546875 1.54296875 z M93.8086125 16.132775 l1.6797 0 l0 0.46875 l-1.6797 0 l0 -0.46875 z M95.136715625 10.000375 l2.8223 0 l0 0.11719 q0 1.328125 0.48828125 2.021484375 q1.26953125 2.24609375 1.26953125 2.421875 l0.029297 0 q0 -0.107421875 1.50390625 -2.96875 q0.185546875 -0.72265625 0.185546875 -1.2890625 l0 -0.30273 l2.6563 0 l0 0.019531 q0 1.97265625 -0.703125 2.958984375 q-0.15625 0.302734375 -2.255859375 3.5546875 q0.439453125 0.703125 0.439453125 0.751953125 l-0.86914 0 l0 0.40039 l1.1133 0 q0.1171875 0.1171875 1.50390625 2.421875 l0 1.7578 l0.46875 0 l0 1.084 l-1.0352 0 l0 0.33203 l1.0352 0 l0 0.53711 l-3.1543 0 l0 -3.7109 l-0.35156 0 q-0.654296875 -1.396484375 -0.654296875 -1.484375 l-0.029297 0 q-0.185546875 0.48828125 -0.68359375 1.484375 l0 1.9238 l-0.95703 0 l0 1.9336 q-0.72265625 0.01953125 -1.064453125 0.01953125 l-1.8066 0 l-0.23438 -0.019531 l0 -2.2852 l0.63477 0 l0 -2.002 l1.6211 0 l0 -0.35156 l-0.75195 0 l0 -1.3574 l1.0156 0 q0.068359375 -0.078125 0.83984375 -1.318359375 l0 -0.048828 q-2.28515625 -3.41796875 -2.490234375 -3.759765625 q-0.5859375 -0.91796875 -0.5859375 -2.7734375 l0 -0.068359 z"></path>
    </g>
</svg>